# 3ds Max Wavefront OBJ Exporter v0.97b - (c)2007 guruware
# File Created: 05.04.2013 06:24:22

#
# object 20263_Heptagrammic_prism
#

v  -3.3965 -3.3793 -0.0000
v  -1.4242 -3.3793 -0.0000
v  -1.4242 -3.3793 6.8173
v  -3.3965 -3.3793 6.8173
v  -3.3965 -1.4069 0.0000
v  -3.3965 -1.4069 6.8173
v  3.4207 1.4169 0.0000
v  3.4207 3.4380 -0.0000
v  3.4207 3.4380 6.8173
v  3.4207 1.4169 6.8173
v  1.3996 3.4380 -0.0000
v  1.3996 3.4380 6.8173
v  1.3997 -3.3793 -0.0000
v  3.4207 -3.3793 -0.0000
v  3.4207 -3.3793 6.8173
v  1.3997 -3.3793 6.8173
v  3.4207 -1.3583 -0.0000
v  3.4207 -1.3583 6.8173
v  -1.4241 3.4380 0.0000
v  -3.3965 3.4380 -0.0000
v  -3.3965 3.4380 6.8173
v  -1.4241 3.4380 6.8173
v  -3.3965 1.4655 -0.0000
v  -3.3965 1.4655 6.8173
v  -0.0122 -4.7912 0.0000
v  -0.0122 -4.7912 6.8173
v  4.8083 0.0293 0.0000
v  4.8083 0.0293 6.8173
v  -0.0122 4.8498 0.0000
v  -0.0122 4.8498 6.8173
v  -4.8327 0.0293 0.0000
v  -4.8327 0.0293 6.8173
# 32 vertices

vn -0.0000 -1.0000 -0.0000
vn -1.0000 -0.0000 -0.0000
vn 1.0000 0.0000 0.0000
vn 0.0000 1.0000 -0.0000
vn -0.0000 -1.0000 0.0000
vn 1.0000 0.0000 -0.0000
vn -0.0000 1.0000 -0.0000
vn 0.7071 -0.7071 -0.0000
vn -0.7071 -0.7071 0.0000
vn 0.7071 0.7071 0.0000
vn -0.7071 0.7071 -0.0000
vn 0.0000 0.0000 1.0000
vn -0.0000 0.0000 1.0000
vn 0.0000 -0.0000 1.0000
vn -0.0000 -0.0000 1.0000
vn -0.0000 -0.0000 -1.0000
vn 0.0000 -0.0000 -1.0000
vn -0.0000 0.0000 -1.0000
vn 0.0000 0.0000 -1.0000
# 19 vertex normals

vt 0.0000 0.0000 0.0000
vt 0.2893 0.0000 0.0000
vt 0.0000 0.2893 0.0000
vt 1.0000 0.7035 0.0000
vt 1.0000 1.0000 0.0000
vt 0.7035 1.0000 0.0000
vt 0.7035 0.0000 0.0000
vt 1.0000 0.0000 0.0000
vt 1.0000 0.2965 0.0000
vt 0.2893 1.0000 0.0000
vt 0.0000 1.0000 0.0000
vt 0.0000 0.7107 0.0000
vt 0.2929 0.0000 0.0000
vt 0.0000 0.2929 0.0000
vt 0.7121 0.0000 0.0000
vt 1.0000 0.2879 0.0000
vt 1.0000 0.7071 0.0000
vt 0.7071 1.0000 0.0000
vt 0.2979 1.0000 0.0000
vt 0.0000 0.7021 0.0000
vt 0.0000 0.8510 0.0000
vt 0.0000 0.8553 0.0000
vt 0.8536 1.0000 0.0000
vt 0.8518 1.0000 0.0000
vt 1.0000 0.1439 0.0000
vt 1.0000 0.1482 0.0000
vt 0.1465 0.0000 0.0000
vt 0.1447 0.0000 0.0000
# 28 texture coords

g 20263_Heptagrammic_prism
s off
f 1/1/1 2/2/1 3/2/1 4/1/1 
f 5/3/2 1/1/2 4/1/2 6/3/2 
f 7/4/3 8/5/3 9/5/3 10/4/3 
f 8/5/4 11/6/4 12/6/4 9/5/4 
f 13/7/5 14/8/5 15/8/5 16/7/5 
f 14/8/6 17/9/6 18/9/6 15/8/6 
f 19/10/7 20/11/7 21/11/7 22/10/7 
f 20/11/2 23/12/2 24/12/2 21/11/2 
f 25/1/8 13/13/8 16/13/8 26/1/8 
f 2/14/9 25/1/9 26/1/9 3/14/9 
f 17/15/8 27/8/8 28/8/8 18/15/8 
f 27/8/10 7/16/10 10/16/10 28/8/10 
f 11/17/10 29/5/10 30/5/10 12/17/10 
f 29/5/11 19/18/11 22/18/11 30/5/11 
f 23/19/11 31/11/11 32/11/11 24/19/11 
f 31/11/9 5/20/9 6/20/9 32/11/9 
f 32/11/12 6/20/12 24/21/12 
f 21/11/13 24/12/13 22/22/13 
f 30/5/14 22/18/14 12/23/14 
f 9/5/12 12/6/12 10/24/12 
f 28/8/15 10/16/15 18/25/15 
f 15/8/12 18/9/12 16/26/12 
f 26/1/12 16/13/12 3/27/12 
f 4/1/15 3/2/15 6/28/15 
f 12/6/12 22/18/12 24/12/12 6/20/12 
f 3/2/12 10/16/12 12/6/12 6/20/12 
f 16/13/14 18/9/14 10/16/14 3/2/14 
f 31/11/16 23/21/16 5/20/16 
f 20/11/17 19/22/17 23/12/17 
f 29/5/18 11/23/18 19/18/18 
f 8/5/16 7/24/16 11/6/16 
f 27/8/19 17/25/19 7/16/19 
f 14/8/19 13/26/19 17/9/19 
f 25/1/16 2/27/16 13/13/16 
f 1/1/19 5/28/19 2/2/19 
f 11/6/19 5/20/19 23/12/19 19/18/19 
f 2/2/19 5/20/19 11/6/19 7/16/19 
f 13/13/18 2/2/18 7/16/18 17/9/18 
# 22 polygons - 16 triangles

